<svg width="348" height="1935" viewBox="0 0 348 1935" fill="none" xmlns="http://www.w3.org/2000/svg">
<path d="M177.229 0.51998C195.709 -1.14371 214.33 1.19606 231.824 7.37838L233.148 7.85201C260.941 17.9777 289.361 38.7865 302.262 66.521C308.672 80.3006 313.043 98.9643 314.251 117.554C315.457 136.102 313.544 155.028 306.982 169.172C302.9 177.972 297.891 186.128 293.255 194.124C288.579 202.191 284.221 210.19 281.135 219.013C276.685 231.735 273.789 245.399 275.831 258.343C276.626 263.384 279.414 271.011 283.542 280.274C287.631 289.449 292.899 299.938 298.457 310.595C309.506 331.781 321.808 353.817 327.789 366.799C333.805 379.858 336.266 394.32 337.471 408.746C338.074 415.968 338.365 423.236 338.616 430.348C338.867 437.485 339.076 444.442 339.511 451.159C342.791 501.751 345.894 526.588 341.782 550.059C337.646 573.66 326.248 595.876 301.399 641.65L301.398 641.649C296.837 650.05 291.266 659.046 286.412 667.644C281.457 676.422 277.001 685.194 274.134 693.973C272.377 699.354 271.746 705.172 271.514 711.281C271.398 714.332 271.383 717.406 271.366 720.523C271.35 723.62 271.331 726.763 271.204 729.854C270.327 751.2 267.236 770.495 260.111 790.838C272.68 822.555 288.293 838.946 302.283 857.066C316.567 875.564 328.7 895.407 332.864 933.712C336.248 964.846 335.49 985.919 328.941 1005.43C322.509 1024.6 310.582 1041.96 292.324 1065.72C294.388 1091.34 298.861 1117.54 297.682 1144.16L297.68 1144.22L297.675 1144.27C296.295 1161.94 295.498 1180.34 294.644 1198.76C293.791 1217.17 292.883 1235.59 291.283 1253.23C287.153 1298.74 292.797 1333.98 302.228 1378.74C304.195 1388.07 304.71 1398.52 305.487 1408.54C306.275 1418.7 307.333 1428.54 310.257 1437.32L310.269 1437.35L310.28 1437.39C312.767 1445.43 316.409 1453.31 320.251 1461.34C324.06 1469.3 328.085 1477.45 331.116 1485.77C366.236 1582.2 338.221 1679.36 307.014 1771.03C304.175 1781.18 300.29 1792.05 296.957 1802.58C293.57 1813.28 290.679 1823.84 289.597 1833.92C288.723 1842.05 290.599 1849.93 293.526 1857.88C294.989 1861.85 296.688 1865.77 298.406 1869.74C300.109 1873.67 301.836 1877.66 303.277 1881.62C306.152 1889.54 308.057 1897.8 306.323 1906.24C304.569 1914.78 299.218 1922.96 288.718 1930.97L287.936 1931.57L286.954 1931.64C222.072 1936.21 152.124 1932.84 87.5061 1932.61H86.2454C79.555 1932.64 66.9634 1933.04 54.5569 1933.19C48.0029 1933.27 41.5476 1933.27 36.2102 1933.1C31.0479 1932.93 26.4564 1932.6 23.9553 1931.83L22.4407 1931.37L20.2542 1925.86L20.3518 1925.03C20.7267 1921.85 21.2109 1919.69 22.1184 1917.57C22.9651 1915.59 24.1781 1913.68 25.6585 1911.18L26.1927 1910.28L27.1516 1909.85C34.9432 1906.39 45.2874 1903.94 55.0725 1901.93C65.058 1899.87 74.3628 1898.27 80.7425 1896.48L80.7434 1896.48C92.4784 1893.2 118.616 1882.11 143.228 1869.33C155.502 1862.96 167.288 1856.22 176.624 1849.89C181.294 1846.73 185.3 1843.7 188.43 1840.9C191.604 1838.07 193.689 1835.64 194.731 1833.69C214.119 1797.56 219.373 1751.17 218.695 1703.43C218.016 1655.7 211.438 1607.22 207.507 1566.84C204.57 1536.66 202.844 1503.34 196.466 1476.05C193.633 1463.92 186.42 1453.09 178.615 1441.35C170.965 1429.85 162.804 1417.55 159.099 1403.04C157.472 1398.63 157.1 1393.32 157.244 1387.93C157.392 1382.43 158.095 1376.5 158.792 1370.83C159.498 1365.08 160.195 1359.64 160.404 1354.84C160.616 1349.96 160.286 1346.28 159.278 1343.88C130.883 1276.3 97.1533 1211.45 82.6536 1137.95C73.0919 1147.44 62.622 1155.98 51.3889 1163.44L49.8235 1164.48L48.1331 1163.66C33.8115 1156.71 26.359 1152.86 15.2854 1140.52C12.0748 1136.94 9.44556 1131.39 7.33426 1125.21C5.19352 1118.95 3.47203 1111.7 2.23758 1104.46C1.00243 1097.21 0.242318 1089.89 0.0490995 1083.46C-0.141552 1077.12 0.208216 1071.35 1.35867 1067.36L1.59793 1066.57C2.86388 1062.6 5.14174 1058.19 7.86551 1053.66C10.7931 1048.81 14.3527 1043.64 18.01 1038.52C25.4203 1028.14 33.0921 1018.11 37.4505 1010.5C46.7649 994.221 55.2923 977.043 63.2649 959.804C68.2557 949.015 71.4212 939.598 70.2093 928.115C67.7627 908.412 64.2048 888.768 60.4534 869.064C56.7053 849.377 52.7578 829.597 49.5764 809.779C45.5263 784.551 45.0032 760.221 45.4036 736.043C45.8058 711.756 47.1257 687.9 46.8216 663.022C46.6693 650.56 44.1398 638.315 41.1419 625.843C38.1687 613.475 34.7005 600.768 32.9221 587.874C31.0143 574.039 32.3948 560.762 34.4915 547.818C36.6111 534.733 39.3903 522.303 40.5833 509.332C41.0343 503.197 40.1869 496.804 39.3841 489.949C38.5995 483.249 37.8639 476.13 38.8684 469.192L39.0315 468.057C42.6428 444.328 58.5496 427.127 71.6663 410.332C97.8005 376.864 120.718 354.074 154.616 328.871C153.982 306.409 147.172 284.365 139.129 262.993C124.839 266.634 113.937 267.493 105.676 265.731C96.5874 263.793 90.8678 258.715 87.5432 251.407C84.3392 244.363 83.4151 235.376 83.2718 225.526C83.1333 216.011 83.7339 205.038 83.9925 193.738C81.9106 191.095 78.7339 187.269 76.1067 183.722C73.1248 179.696 70.0888 175.068 69.0364 171.009C68.0701 167.278 69.0373 163.343 70.5442 159.817C72.0774 156.229 74.3843 152.572 76.7444 149.18C79.0665 145.843 81.6931 142.416 83.6624 139.684C85.7873 136.736 87.1343 134.61 87.6009 133.256L88.0843 131.813C92.9522 116.893 93.7413 101.758 95.7952 85.9897C97.8924 69.8888 101.307 53.5282 112.228 37.9614C128.778 14.3706 150.211 5.69845 176.902 0.565878L177.064 0.535605L177.229 0.51998Z" fill="currentColor"/>
</svg>
