<svg width="535" height="600" viewBox="0 0 535 600" fill="none" xmlns="http://www.w3.org/2000/svg">
<path fill-rule="evenodd" clip-rule="evenodd" d="M274.568 0.00633416C334.485 0.175759 391.86 24.2249 433.963 66.8273C472.902 107.256 497.767 159.146 504.869 214.817C507.801 237.558 507.747 259.622 510.186 281.959C531.063 289.89 532.302 300.051 534.518 321.239L534.924 328.362C536.082 363.005 524.175 417.604 489.39 433.543L484.508 435.819C479.187 444.447 474.426 456.284 469.727 465.617C462.635 479.711 454.508 493.269 445.414 506.168L444.762 507.016C414.082 548.009 378.298 573.272 330.766 591.468C306.748 600.67 281.813 601.403 256.55 598.458L250.332 597.979C214.907 593.199 190.526 584.901 159.7 567.25C152.034 563.412 140.648 555.028 133.786 549.844C105.322 528.081 82.2617 500.062 66.3952 467.95C51.8387 438.962 59.121 443.91 33.5461 426.448C14.6096 413.52 3.78174 362.206 0.807254 340.189C-0.845205 327.958 -0.717022 301.726 8.61866 291.461C13.8472 285.487 26.5449 283.059 26.5905 279.936C26.8023 265.418 27.8985 248.632 29.2459 234.387C34.9378 174.237 55.2589 124.663 92.739 76.9887L95.7477 73.5548C99.2003 69.6315 102.677 65.7364 106.18 61.8601L108.461 59.837C151.001 17.6859 215.734 -0.388833 274.568 0.00633416ZM398.651 62.1708C351.764 27.6314 293.248 12.7181 235.535 20.612C105.417 39.7213 44.7338 152.062 45.4014 272.973C44.6368 294.773 45.3858 315.548 48.9026 337.113C61.1957 412.486 81.31 488.818 146.79 536.596L147.746 537.688C239.595 605.75 360.175 592.418 428.582 499.451C484.936 422.873 497.171 306.891 486.384 214.789C479.336 154.62 446.907 98.385 398.651 62.1708Z" fill="currentColor"/>
</svg>
