<svg width="435" height="600" viewBox="0 0 435 600" fill="none" xmlns="http://www.w3.org/2000/svg">
<path d="M14.0336 246.284L16.5246 245.468C21.8049 243.675 22.1443 244.302 26.7294 247.482L26.8618 252.582C26.6715 280.6 28.997 310.202 43.9688 335.354C45.7399 338.335 49.6795 345.385 53.3872 344.812C55.4811 341.294 57.037 337.969 60.1903 335.459C64.9657 334.584 65.9092 339.009 67.2583 343.029C71.024 354.281 73.2172 365.992 76.6435 377.384C78.5719 383.741 80.8066 390.001 83.3391 396.141C107.133 453.814 159.522 509.558 226.693 504.375C286.894 499.729 332.265 447.422 353.593 394.555C359.99 378.695 362.697 362.349 367.844 346.2C368.54 344.081 370.087 341.252 372.214 340.192C376.328 340.145 379.166 343.064 382.378 345.662C390.919 341.363 392.342 338.927 396.605 330.4C397.598 327.26 399.104 323.562 400.279 320.422C404.351 323.923 408.075 328.014 411.8 331.905L410.898 333.17C400.519 362.029 380.3 356.06 377.379 365.9C370.94 387.607 366.487 405.507 355.662 426.241L354.917 427.49C350.158 436.272 341.981 446.873 342.155 456.597C342.42 471.129 342.8 487.44 345.093 501.783C345.813 506.434 346.483 511.23 347.452 515.824L349.943 527.531L353.195 535.118C343.794 541.848 342.974 533.467 335.236 529.221L333.995 525.13C328.863 503.7 326.827 486.346 328.731 464.314C264.681 537.038 174.502 536.712 108.929 466.154C107.738 472.808 108.325 480.809 107.183 486.092C106.264 515.581 100.107 545.855 77.8022 566.788C72.6792 571.541 67.0183 575.69 60.9435 579.153C52.1541 584.184 9.6057 604.832 1.23839 598.168C-2.77561 590.853 3.77923 587.235 9.33261 584.864C20.3566 582.285 36.3546 573.386 46.6669 568.057L50.9871 565.64C54.67 563.882 57.8564 561.867 61.3407 559.76C95.3231 530.883 93.1796 489.373 92.9562 448.231C81.0052 428.859 72.8117 412.933 65.7603 391.156C62.7974 382.011 60.5214 368.725 57.0454 360.668C55.5225 357.144 46.3772 360.211 39.7314 353.436C17.2116 330.499 14.0335 286.283 12.7093 256.292C13.1066 252.891 13.4791 249.673 14.0336 246.284Z" fill="currentColor"/>
<path d="M112.132 29.9344C123.669 23.2322 134.023 17.4525 146.628 12.7088C227.859 -17.8709 328.4 6.91086 372.645 85.1476C398.814 131.412 399.683 172.156 399.6 222.901C399.592 228.688 416.07 228.746 418.727 233.286C430.363 249.64 421.615 299.141 417.353 314.655C415.723 320.475 413.869 326.229 411.8 331.905C408.075 328.014 404.351 323.923 400.279 320.422C406.453 304.385 414.001 265.878 408.456 247.505C407.595 244.64 403.987 242.752 401.173 241.778C395.76 243.333 398.433 249.264 394.602 256.12C385.945 261.845 383.602 249.616 383.536 243.411C382.932 189.06 389.429 144.905 359.791 95.1401C336.99 57.6917 300.268 30.8189 257.695 20.4148C213.839 9.64957 162.593 18.5315 124.108 42.0106L122.386 43.0325C118.894 38.9804 114.83 34.8032 111.139 30.8711L112.132 29.9344Z" fill="currentColor"/>
<path d="M34.9725 203.311C34.418 184.301 36.9091 159.221 40.3438 140.562C49.0173 93.3803 71.8184 57.9708 111.139 30.8711C114.83 34.8032 118.894 38.9804 122.386 43.0325C83.5707 69.3132 63.3436 102.974 53.6521 149.083C49.5223 168.762 50.9374 185.557 51.6988 205.261C51.9885 212.66 51.5747 220.732 51.8313 228.342L51.7817 232.579C43.4475 239.975 39.8058 231.818 33.3834 226.321C34.0207 224.346 34.4263 221.149 34.7822 218.985L34.9974 212.143L34.6663 210.024C35.0139 207.948 34.9394 205.448 34.9725 203.311Z" fill="currentColor"/>
</svg>
