<svg width="595" height="1931" viewBox="0 0 595 1931" fill="none" xmlns="http://www.w3.org/2000/svg">
<path d="M289.448 0.135263C317.836 -1.53254 345.203 12.3746 363.745 33.4556C382.294 54.5443 392.359 83.2163 385.521 111.42L385.52 111.421C383.855 118.277 382.792 126.09 381.768 133.397C387.092 142.622 387.162 153.356 387.038 161.725C386.952 167.848 387.141 172.882 387.156 177.736C387.171 182.47 387.014 186.862 386.156 191.052C384.381 199.721 379.723 206.967 369.096 215.268C367.428 216.572 365.889 219.454 364.766 224.115C363.677 228.631 363.12 234.207 362.91 240.13C362.511 251.414 363.383 263.445 363.923 270.828C371.854 280.241 388.743 293.538 407.074 305.528C425.913 317.849 445.611 328.356 457.789 331.718C459.76 332.262 462.704 332.534 466.536 332.699C468.414 332.779 470.426 332.833 472.562 332.891C474.687 332.949 476.922 333.013 479.199 333.115C488.164 333.515 498.399 334.512 506.149 338.596C511.562 341.449 516.87 346.652 521.817 352.843C526.806 359.088 531.624 366.589 536.002 374.327C544.75 389.789 551.904 406.493 555.268 416.663C561.741 436.242 562.553 458.947 562.369 481.433C562.19 503.423 561.068 525.105 562.995 544.415L563.192 546.276L563.193 546.278C564.354 556.788 566.564 566.015 569.018 575.265C571.46 584.471 574.176 593.815 576.213 604.246C577.863 612.653 578.806 622.246 579.693 631.644C580.586 641.115 581.423 650.383 582.848 658.433L583.652 662.922C591.855 709.281 596.817 754.493 594.245 801.977C592.016 843.121 585.61 883.734 578.906 924.152C572.194 964.622 565.188 1004.87 561.673 1045.54C561.15 1051.64 562.147 1058.07 563.838 1064.86C565.56 1071.79 567.826 1078.48 569.864 1085.74C573.749 1099.58 576.476 1114.43 568.741 1128.27L568.365 1128.93C564.045 1136.32 557.653 1145.25 550.264 1153.21C542.918 1161.12 534.354 1168.33 525.651 1171.94L525.538 1171.98L525.423 1172.02C521.739 1173.24 517.447 1173.04 513.222 1172.23C508.94 1171.41 504.378 1169.88 499.964 1168.1C491.148 1164.55 482.482 1159.8 477.273 1157.06L475.254 1156L475.542 1153.73C477.55 1137.98 477.07 1121.77 476.682 1105.62C476.296 1089.59 475.997 1073.58 478.529 1058.71L478.562 1058.52L478.616 1058.34C480.258 1052.75 483.366 1047.18 486.924 1041.74C490.468 1036.33 494.674 1030.73 498.51 1025.33C506.295 1014.36 512.595 1004.04 512.772 994.065L512.776 993.591C512.719 965.839 508.266 938.025 503.885 909.789C499.519 881.645 495.228 853.102 495.694 824.328L495.696 824.257C497.056 788.125 499.432 755.615 497.084 719.731L497.001 718.552C495.178 693.956 487.497 678.616 480.064 662.447C473.826 648.879 467.841 634.856 466.114 614.86C463.036 622.01 459.447 630.748 455.985 639.518C450.123 654.366 444.76 668.97 442.874 675.922L442.702 676.571C439.832 687.744 437.099 706.235 436.038 724.835C434.971 743.55 435.636 761.78 439.228 772.705L439.796 774.387C442.73 782.849 446.963 792.024 451.069 801.667C455.363 811.75 459.479 822.267 461.325 832.311C462.853 837.242 463.47 843.16 463.65 849.342C463.832 855.645 463.565 862.443 463.25 869.069C462.933 875.743 462.568 882.214 462.527 888.052C462.489 893.558 462.746 898.246 463.519 901.813L463.681 902.512C474.441 946.233 475.415 981.722 474.404 1026.63C473.002 1089.15 465.297 1150.97 448.957 1211.6C439.134 1248.06 426.57 1283.84 420.787 1320.61C419.646 1328.4 420.223 1340.73 421.205 1353.75C422.172 1366.58 423.524 1380.02 423.75 1389.39C424.013 1400.31 423.19 1414.55 422.703 1428.25C422.21 1442.12 422.061 1455.43 423.554 1465C426.173 1481.78 430.336 1497.32 433.792 1513.63C437.222 1529.81 439.872 1546.44 439.217 1564.68C437.496 1613 426.617 1657.77 413.956 1702.33C401.336 1746.74 386.997 1790.79 377.895 1838.33C382.5 1854.57 391.287 1868.43 400.432 1882.04C409.61 1895.7 419.284 1909.27 424.491 1924.28L425.903 1928.35L421.604 1928.65C412.044 1929.29 385.836 1930.61 360.449 1930.87C347.76 1930.99 335.218 1930.85 325.041 1930.22C319.957 1929.9 315.403 1929.46 311.689 1928.85C308.104 1928.26 304.874 1927.46 302.753 1926.21L301.9 1925.71L301.464 1924.82C300.358 1922.56 299.954 1919.46 299.855 1916.19C299.752 1912.79 299.971 1908.75 300.407 1904.31C301.28 1895.44 303.056 1884.68 305.084 1873.84C307.114 1862.98 309.415 1851.95 311.347 1842.52C313.293 1833.03 314.839 1825.28 315.414 1820.83V1820.83C315.974 1816.51 316.1 1810.91 316.089 1805.09C316.078 1799.4 315.935 1793.37 315.992 1788.68V1788.68C316.495 1749.29 315.172 1711.84 310.028 1672.82C308.213 1658.98 305.57 1645.1 303.301 1630.87C301.047 1616.73 299.194 1602.41 299.069 1588.15V1588.15C298.93 1571.19 301.912 1554.37 304.981 1537.88C308.068 1521.29 311.235 1505.06 311.701 1488.77C312.322 1467.09 308.662 1445.96 306.555 1424L306.356 1421.87C304.143 1397.53 301.448 1370.15 301.042 1345.6L300.962 1340.34C300.607 1314.03 300.92 1287.74 301.298 1261.49C301.701 1233.47 302.18 1205.49 302.007 1177.48C301.75 1134.92 304.96 1108.58 297.303 1067.25C296.744 1068.76 296.225 1070.46 295.762 1072.22C294.545 1076.85 293.794 1081.62 293.619 1084.35L293.592 1084.86C291.695 1133.03 292.366 1181.33 293.122 1229.74C293.878 1278.11 294.719 1326.6 293.146 1374.99C292.534 1393.82 289.714 1413.12 287.234 1432.17C284.82 1450.71 282.719 1469.09 283.118 1487.08L283.165 1488.82C283.71 1506.37 287.122 1523.52 290.25 1541.09C293.36 1558.56 296.174 1576.39 295.261 1594.77C294.739 1611.32 292.53 1626.46 290.05 1641.33C287.558 1656.27 284.813 1670.83 283.134 1686.52C279.08 1724.3 278.788 1768.38 279.177 1806.74C279.276 1815.87 280.025 1824.95 281.424 1833.96C282.401 1839.97 286.558 1859.08 290.162 1878.29C291.947 1887.8 293.581 1897.26 294.567 1904.91C295.059 1908.74 295.398 1912.17 295.507 1914.96C295.561 1916.35 295.56 1917.63 295.482 1918.76C295.407 1919.83 295.25 1920.96 294.889 1921.94L294.617 1922.67L294.045 1923.2C291.817 1925.28 288.714 1926.71 285.29 1927.75C281.82 1928.79 277.74 1929.52 273.311 1930.01C264.452 1931 253.825 1931.1 243.119 1930.86C232.404 1930.62 221.463 1930.03 212.014 1929.6C203.063 1929.19 195.579 1928.93 190.673 1929.19L189.727 1929.25C187.503 1929.41 184.518 1929.31 181.632 1928.92C178.816 1928.55 175.688 1927.86 173.397 1926.64L171.842 1925.82L171.665 1924.06C171.502 1922.45 171.937 1920.67 172.467 1919.09C173.03 1917.41 173.856 1915.53 174.83 1913.56C176.782 1909.62 179.472 1905.02 182.282 1900.48C185.1 1895.93 188.083 1891.37 190.636 1887.47C193.217 1883.53 195.306 1880.36 196.42 1878.48L196.421 1878.48C204.171 1865.43 210.721 1852.84 217.259 1839.12C215.314 1825.22 210.777 1809.75 207.673 1795.45L206.949 1792.18C199.365 1758.39 188.369 1725.79 178.415 1692.66C168.169 1658.55 159.077 1624.01 156.32 1587.68C154.164 1560.6 156.044 1533.36 161.903 1506.85C163.227 1500.78 165.279 1492.72 167.11 1484.97C168.967 1477.09 170.607 1469.49 171.223 1463.99C172.483 1452.71 172.32 1440.38 171.883 1427.77C171.449 1415.24 170.739 1402.38 170.972 1390.41C171.197 1378.67 172.142 1367.13 172.795 1355.85C173.452 1344.5 173.823 1333.3 172.954 1321.89L172.794 1319.94C171.03 1299.76 165.884 1279.8 159.881 1259.74C153.911 1239.78 147.035 1219.56 142.043 1199.34L141.567 1197.39C128.273 1142.16 121.921 1081.59 120.093 1024.77L119.93 1019.28C119.295 995.965 119.419 967.871 122.126 944.878V944.875C122.971 937.771 125.119 929.645 127.061 921.806C129.038 913.822 130.819 906.077 131.182 899.254C131.684 889.636 131.153 880.256 130.885 870.56C130.619 860.946 130.62 851.132 132.287 841.096C136.336 816.656 145.001 796.713 154.13 774.862L154.349 774.328C158.894 763.02 159.944 746.695 159.177 729.626C158.403 712.407 155.809 694.91 153.495 682.022C151.506 670.933 145.623 656.301 139.074 640.889C135.264 631.922 131.242 622.712 127.761 613.971C127.302 625.999 125.821 638.161 121.08 649.785V649.787C117.201 659.284 111.976 668.478 107.736 677.264C103.408 686.229 99.8579 695.204 98.6896 705.165C95.5085 732.325 95.9494 758.767 96.6857 785.56C97.4205 812.295 98.451 839.414 96.3693 867.592C94.7931 888.884 90.7778 910.621 87.3625 931.887C83.9314 953.251 81.0923 974.209 81.7013 994.374C82.0467 1005.54 89.3529 1016.25 97.9289 1027.86C102.106 1033.51 106.545 1039.34 110.162 1045.24C113.786 1051.15 116.741 1057.37 117.85 1063.92C119.865 1075.79 118.67 1087.45 117.671 1098.62C116.66 1109.92 115.837 1120.79 118.157 1131.85L118.354 1132.85C118.82 1135.38 119.325 1139.2 119.45 1142.96C119.522 1145.1 119.474 1147.33 119.192 1149.33C118.926 1151.2 118.391 1153.36 117.15 1154.97L117.152 1154.97C115.547 1157.08 112.597 1159.11 109.492 1160.91C106.256 1162.77 102.38 1164.64 98.4894 1166.32C94.5918 1167.99 90.6203 1169.5 87.1711 1170.64C83.8018 1171.75 80.6926 1172.6 78.6213 1172.82L78.6222 1172.82C72.3623 1173.5 65.8541 1171.09 59.8302 1167.32C53.7509 1163.52 47.792 1158.11 42.4914 1152.14C37.1807 1146.16 32.4441 1139.54 28.8361 1133.23C25.261 1126.98 22.661 1120.8 21.8459 1115.76L21.8449 1115.75C20.2902 1106.12 22.17 1096.27 24.5148 1086.94C26.9171 1077.38 29.742 1068.52 30.7101 1059.9C32.2421 1046.24 31.5633 1034.7 30.7853 1020.86C27.5744 985.378 20.6477 950.491 14.172 915.268C7.90809 881.197 2.07665 846.858 0.603676 811.767L0.47477 808.37C-1.24631 757.641 1.58879 712.177 11.0011 662.46C12.496 654.581 13.1645 646.049 13.8888 637.256C14.6067 628.542 15.3789 619.583 17.1183 611.187C21.9499 587.867 28.7724 566.01 31.5343 542.932V542.929C33.5004 526.629 32.5839 505.965 32.1574 485.088C31.7359 464.457 31.7924 443.581 35.967 427.632C38.9518 416.217 46.0433 397.879 54.9611 380.716C59.4275 372.12 64.3906 363.746 69.5754 356.639C74.7276 349.577 80.246 343.56 85.8781 339.895C94.4205 334.336 105.223 333.014 114.831 332.535C117.263 332.413 119.657 332.345 121.946 332.285C124.249 332.224 126.431 332.172 128.499 332.083C132.689 331.9 136.096 331.571 138.64 330.837L138.641 330.836C150.168 327.518 167.801 317.736 185.047 306.457C202.216 295.228 218.556 282.812 227.44 274.528L227.674 274.29C228.227 273.678 228.82 272.676 229.366 271.149C229.981 269.433 230.462 267.265 230.808 264.708C231.5 259.591 231.602 253.291 231.378 246.718C230.967 234.66 229.484 222.233 228.772 215.147C217.615 209.332 211.596 202.2 208.773 193.295C205.917 184.289 206.47 173.795 207.275 162.109L207.379 160.45C207.615 156.478 207.804 151.842 208.445 147.446C209.132 142.742 210.384 137.866 213.027 133.717C212.892 130.709 212.319 127.769 211.564 124.695C210.76 121.424 209.65 117.649 208.89 113.971V113.969C197.181 57.1162 236.651 11.9248 288.922 0.209482L289.182 0.150888L289.448 0.135263Z" fill="currentColor"/>
</svg>
