<svg width="609" height="1940" viewBox="0 0 609 1940" fill="none" xmlns="http://www.w3.org/2000/svg">
<path d="M294.536 0.46856C318.764 -2.2114 347.866 6.81225 366.816 22.2254C382.668 35.1204 389.012 50.0286 391.772 65.9617C393.139 73.8565 393.631 82.0143 393.985 90.2342C394.306 97.6596 394.514 105.106 395.126 112.68C397.679 113.13 400.18 113.942 402.345 115.393C405.422 117.457 407.516 120.609 408.288 124.963C411.605 143.663 407.278 156.687 400.172 168.094C396.683 173.694 392.517 178.916 388.41 184.125C384.266 189.381 380.141 194.672 376.489 200.62L376.057 201.332C376.412 222.328 374.244 237.69 366.719 249.094L370.488 251.306L370.926 252.122C371.721 253.607 372.191 255.539 372.526 257.389C372.876 259.316 373.138 261.522 373.378 263.741C373.872 268.305 374.276 272.895 375.089 276.429L375.317 277.397C382.169 285.285 395.888 296.615 410.633 306.916C425.775 317.494 441.434 326.592 451.233 329.708C459.297 332.273 467.767 333.709 476.44 334.913C485.024 336.105 493.947 337.083 502.478 338.731C519.696 342.059 536.22 348.265 548.534 365.311C567.936 392.171 587.156 429.366 584.702 464.309C584.44 468.05 584.016 472.4 583.574 476.965C583.13 481.549 582.666 486.371 582.311 491.131C581.592 500.757 581.362 509.723 582.513 515.705L582.717 516.744C584.863 527.441 588.128 537.08 591.241 547.266C594.426 557.685 597.398 568.532 598.514 581.065C600.788 595.988 600.39 612.872 599.932 629.264C599.468 645.841 598.946 661.891 600.818 675.638C608.574 732.597 609.81 782.835 606.84 840.215C606.028 855.895 605.933 871.754 605.783 887.806C605.634 903.832 605.43 920.036 604.388 936.269C601.668 978.649 594.8 1016.99 587.699 1058.35L587.592 1059.15C586.605 1067.44 589.179 1077.61 592.086 1088.63C594.97 1099.56 598.214 1111.4 596.942 1121.29L596.935 1121.35L596.926 1121.4C595.202 1131.99 589.439 1143.03 582.629 1153.01C576.21 1162.42 568.687 1171.13 562.231 1177.98L560.954 1179.32C557.575 1182.86 551.979 1183.49 546.693 1183.11C541.156 1182.72 534.798 1181.13 528.693 1178.95C522.569 1176.76 516.536 1173.91 511.639 1170.9C509.19 1169.39 506.975 1167.81 505.158 1166.22C503.375 1164.65 501.811 1162.93 500.86 1161.09C498.846 1157.21 499.325 1152.13 500.108 1148.02C500.781 1144.48 501.893 1140.74 502.642 1138.04C496.76 1129.06 496.354 1119.17 496.056 1109.77C495.567 1094.31 497.542 1082.41 500.971 1072.63C504.399 1062.85 509.228 1055.34 514.225 1048.63C524.305 1035.09 534.46 1025.3 537.723 1006.25C538.123 1003.91 538.146 1000.34 537.767 995.651C537.392 991.014 536.646 985.48 535.618 979.293C533.563 966.921 530.412 952.118 526.973 936.984C520.13 906.876 512.086 875.245 509.561 859.777C505.576 835.361 505.72 811.355 506.5 787.59C507.284 763.74 508.699 740.242 507.366 716.387C506.217 695.806 502.672 675.446 499.17 654.853C496.622 639.869 494.099 624.768 492.602 609.525C488.547 621.197 483.98 632.688 478.912 643.963L478.901 643.988C476.988 648.149 471.665 658.43 466.911 668.111C464.505 673.011 462.222 677.801 460.513 681.724C459.657 683.688 458.963 685.397 458.472 686.772C457.949 688.238 457.76 689.051 457.734 689.346C457.623 690.637 457.746 693.755 458.068 698.185C458.383 702.5 458.862 707.775 459.383 713.181C460.408 723.823 461.604 735.069 461.97 740.113C462.466 743.214 462.537 747.985 462.468 753.258C462.396 758.698 462.166 765.036 462.004 771.179C461.841 777.368 461.744 783.39 461.926 788.373C462.017 790.864 462.176 793.037 462.419 794.808C462.67 796.64 462.981 797.8 463.262 798.41L464.176 800.411C473.489 820.955 478.55 837.635 480.781 854.807C483.079 872.488 482.353 890.53 480.365 913.58C479.746 920.761 481.486 932.418 483.576 945.045C485.617 957.374 487.965 970.499 488.2 979.867C489.105 1015.74 485.976 1052.36 483.737 1087.96L483.736 1087.98L483.734 1088C479.868 1140.66 472.377 1196.17 460.972 1247.65C455.514 1272.29 448.274 1296.78 442.055 1321.07C435.808 1345.48 430.522 1369.93 428.774 1395.06C427.322 1415.92 429.463 1437.12 432.595 1458.49C435.705 1479.71 439.848 1501.39 442.219 1522.52C446.019 1556.39 444.528 1586.86 439.596 1620.46C434.294 1656.57 425.655 1686.2 415.903 1720.88L415.904 1720.88C410.443 1741.14 403.155 1761.6 396.652 1781.86C390.324 1801.58 384.69 1821.25 381.909 1840.97L381.65 1842.88C381.334 1845.28 381.921 1848.16 383.532 1851.59C385.138 1855 387.65 1858.72 390.847 1862.7C397.258 1870.67 406.013 1879.17 414.683 1887.75C423.24 1896.22 431.757 1904.8 437.248 1912.68C439.997 1916.62 442.146 1920.6 443.092 1924.48C443.83 1927.51 443.846 1930.56 442.798 1933.43L443.234 1934.35L442.426 1934.35C442.165 1934.92 441.861 1935.49 441.506 1936.05L440.833 1937.11L439.625 1937.46C435.941 1938.5 431.421 1939.27 427.302 1939.25H427.28C395.805 1938.92 362.092 1939.31 330.6 1936.86L330.488 1936.86L330.379 1936.84C323.739 1935.87 319.004 1934.1 315.777 1931.46C312.423 1928.71 311.041 1925.29 310.564 1921.85C310.115 1918.62 310.451 1915.1 310.614 1912.22C310.789 1909.15 310.797 1906.56 310.111 1904.27C304.511 1885.61 305.317 1869.59 308.026 1853.81C309.371 1845.98 311.202 1838.13 312.937 1830.14C314.68 1822.1 316.349 1813.84 317.437 1804.97C319.126 1789.91 322.808 1772.41 325.412 1755.56C328.057 1738.44 329.663 1721.64 327.521 1706.96C325.012 1689.78 321.589 1674.32 318.725 1658.25C315.878 1642.29 313.647 1626.01 313.671 1607.79C313.695 1589.15 318.093 1573.1 320.977 1557.99C323.88 1542.77 325.374 1528.1 320.26 1511.15C305.876 1463.44 304.682 1411.02 309.348 1362.08L309.349 1362.07C317.031 1283.65 319.413 1208.64 309.052 1130.63C305.636 1104.92 304.163 1078.87 305.639 1053C305.286 1053.01 304.879 1053.05 304.22 1053.13C304.116 1054.38 304.027 1056.04 303.949 1058.01C303.791 1062.05 303.688 1067.26 303.601 1072.65C303.428 1083.29 303.315 1094.89 302.909 1098.97C296.072 1167.54 290.544 1236.89 295.016 1305.5C297.66 1346.08 302.815 1386.21 302.277 1426.42C302.178 1447.11 299.761 1467.72 295.072 1487.89L295.069 1487.9L295.067 1487.91C288.107 1516.75 280.132 1533.5 289.265 1561.44C298.874 1590.83 296.671 1618.8 292.222 1645.99C287.738 1673.4 281.099 1699.6 281.176 1726.7C281.23 1745.67 284.763 1768.34 289.132 1791.36C293.472 1814.24 298.67 1837.62 301.871 1857.45C302.766 1863 302.775 1877.9 301.711 1892.72C301.174 1900.19 300.356 1907.79 299.204 1914.32C298.076 1920.73 296.559 1926.56 294.436 1930.19L293.87 1931.16L292.833 1931.58C277.256 1937.9 255.66 1939.23 234.191 1939.26C212.352 1939.29 190.828 1938 174.011 1938.77L174.012 1938.77C172.772 1938.83 171.607 1938.62 170.543 1938.11C169.496 1937.61 168.723 1936.91 168.142 1936.23C167.581 1935.57 167.142 1934.86 166.813 1934.32C166.442 1933.7 166.208 1933.29 165.917 1932.86L165.507 1932.26L165.39 1931.54C164.277 1924.7 167.653 1917.79 172.447 1911.22C177.321 1904.55 184.252 1897.47 191.51 1890.16C206.028 1875.55 221.899 1859.94 228.806 1843.2C222.54 1811.8 212.932 1784.69 203.08 1753.73C183.807 1693.15 168.654 1636.57 165.024 1572.57C163.144 1539.42 168.452 1508.02 173.342 1477.33C178.25 1446.52 182.742 1416.4 179.607 1385.19C175.78 1347.08 163.474 1308.82 153.922 1271.22C146.042 1240.7 139.907 1209.76 135.543 1178.54C130.01 1141.27 126.816 1104.41 124.238 1066.94C122.402 1040.25 119.58 1012 120.736 984.914C121.23 973.361 122.9 961.584 124.543 949.975C126.195 938.307 127.821 926.803 128.314 915.529C128.756 905.378 127.948 895.394 127.32 885.064C126.698 874.814 126.262 864.298 127.574 853.508C128.973 842.008 133.408 830.615 137.626 819.75C141.911 808.713 145.973 798.22 147.206 787.904C147.869 782.356 147.482 775.056 146.974 767.247C146.477 759.608 145.865 751.499 146.241 744.853L146.351 743.042C147.524 724.664 150.62 706.707 152.598 688.801C136.879 656.999 126.761 639.455 116.223 608.315C114.483 624.93 112.118 641.23 109.761 657.372C106.638 678.756 103.535 699.853 101.868 721.246C101.158 751.279 102.973 781.7 103.39 812.051L103.425 814.99V814.992C103.897 862.846 87.606 916.545 76.9659 961.196C70.371 988.87 69.1627 1002.11 72.9894 1013.82C74.9163 1019.72 78.1835 1025.41 83.0665 1032.49C88.0007 1039.65 94.2834 1047.81 102.321 1058.98C109.765 1069.32 112.328 1084.47 112.384 1099.48C112.439 1114.13 110.104 1129.22 107.024 1140.84C107.928 1142.88 109.047 1145.42 109.754 1148C110.586 1151.02 111.032 1154.71 109.477 1158.14C107.781 1161.89 104.622 1165.09 101.002 1167.82C97.3452 1170.57 92.9648 1173.02 88.4903 1175.18C79.5708 1179.48 69.7894 1182.82 63.9327 1185.03L62.8214 1185.45L61.7003 1185.06C50.392 1181.15 39.3738 1171.09 30.6837 1159.68C22.2286 1148.58 15.597 1135.72 12.8888 1124.85L12.6388 1123.81C10.3117 1113.62 13.3216 1101.8 16.2726 1090.86C19.3417 1079.48 22.3919 1068.9 21.506 1059.86L21.504 1059.84L21.503 1059.82C20.1007 1043.72 16.5533 1027.65 13.4767 1011.4C2.57644 959.775 4.98069 906.461 1.76964 855.4C-2.30776 790.569 0.948899 732.249 8.5841 668.156C10.2102 654.506 9.73409 639.365 9.37706 623.707C9.02276 608.168 8.78906 592.16 11.0362 577.256C12.8571 565.176 15.8348 554.444 18.8644 543.959C21.9004 533.452 24.9723 523.24 27.1339 511.915C28.1086 505.53 27.7423 497.83 26.9064 489.763C26.4895 485.741 25.9648 481.695 25.4523 477.725C24.9422 473.775 24.443 469.89 24.0929 466.271L24.0919 466.268C20.7787 431.71 38.8333 399.488 54.7784 372.7C68.9786 348.843 88.4391 341.844 108.757 338.299C113.798 337.419 118.919 336.747 124.002 336.085C129.108 335.42 134.176 334.767 139.223 333.919C149.306 332.224 159.121 329.78 168.405 325.085C175.131 321.684 189.856 312.042 203.994 301.631C211.033 296.447 217.854 291.127 223.39 286.365C229.023 281.519 233.031 277.496 234.735 274.88L235.201 274.153C235.614 266.539 236.246 258.938 237.102 251.36L237.654 246.465L241.965 248.851C242.307 249.041 242.65 249.231 242.993 249.421C230.435 234.005 232.09 216.438 232.846 198.968C224.243 189.345 213.431 176.49 206.399 162.513C199.124 148.054 195.579 131.735 203.553 116.434L203.962 115.649L204.71 115.176C205.573 114.629 206.408 114.069 206.987 113.738C207.699 113.332 208.587 112.922 209.752 112.881C210.68 112.848 211.602 113.075 212.218 113.218C212.633 113.314 213.108 113.425 213.69 113.55C214.047 107.595 214.208 101.549 214.439 95.3807C214.694 88.5256 215.037 81.567 215.85 74.6961C217.477 60.9435 221.009 47.33 229.695 35.1551C245.888 12.4601 269.62 4.79197 294.335 0.49688L294.436 0.479302L294.536 0.46856Z" fill="currentColor"/>
</svg>
