<svg width="348" height="1935" viewBox="0 0 348 1935" fill="none" xmlns="http://www.w3.org/2000/svg">
<path d="M140.723 0.68529C167.818 -1.84639 192.77 2.33451 215.074 18.3025C236.323 33.5178 244.631 52.0033 249.109 71.8728C251.326 81.7113 252.624 91.9815 254.083 102.247C255.552 112.574 257.195 122.989 260.097 133.442C260.432 134.643 261.443 136.462 263.151 138.954C264.82 141.389 266.832 144.023 268.965 146.95C271.048 149.809 273.188 152.871 274.885 155.9C276.559 158.888 277.956 162.107 278.315 165.263C278.966 170.914 276.519 176.308 273.662 180.852C271.014 185.061 267.519 189.255 264.995 192.56C263.67 204.794 263.798 215.866 263.744 225.629C263.689 235.428 263.469 244.313 261.007 251.162C259.741 254.684 257.846 257.794 255 260.261C252.158 262.726 248.557 264.386 244.13 265.309C235.897 267.026 224.416 266.266 208.474 263.016C199.361 288.186 196.273 302.297 192.68 328.943C196.299 332.188 201.264 335.796 206.67 339.743C212.586 344.062 218.957 348.74 224.004 353.485C249.61 377.181 271.46 405.15 292.549 432.277C303.905 446.876 307.383 459.466 308.187 472.535C308.582 478.96 308.331 485.503 308.104 492.288C307.876 499.118 307.668 506.283 308.102 514.207C308.732 525.698 311.185 538.532 313.165 551.904C315.117 565.091 316.584 578.688 314.949 590.995C313.373 602.874 309.966 614.699 306.95 626.213C303.905 637.836 301.228 649.232 300.832 660.74L300.829 660.815L300.823 660.891C299.547 676.692 300.313 692.433 301.269 708.222C302.221 723.942 303.367 739.767 302.761 755.391C300.428 816.078 286.093 878.153 275.45 937.681C285.947 965.504 301.142 995.684 316.639 1021.42L318.154 1023.93L318.155 1023.93C320.846 1028.35 323.924 1032.36 327.111 1036.34C330.26 1040.28 333.587 1044.27 336.55 1048.41C342.556 1056.81 347.371 1066.24 347.654 1079.18C348.221 1094.61 345.898 1113.56 338.765 1129.42C331.608 1145.33 319.388 1158.53 300.125 1161.28C296.353 1161.82 292.45 1160.45 288.938 1158.53C285.35 1156.57 281.695 1153.78 278.252 1150.81C274.795 1147.83 271.45 1144.57 268.494 1141.62C267.451 1140.58 266.466 1139.59 265.543 1138.66C260.041 1172.04 246.646 1208.33 231.683 1243.79C215.796 1281.43 198.276 1317.85 185.971 1349.7C187.84 1361.48 189.606 1366.08 190.46 1380.41L190.517 1381.48C191.585 1403.76 183.837 1418.79 174.811 1433C165.626 1447.46 155.431 1460.75 150.546 1480.54C143.139 1510.56 144.36 1534.16 141.077 1566.03C136.977 1605.79 130.391 1653.08 129.227 1699.8C128.063 1746.54 132.354 1792.18 149.716 1828.53L150.052 1829.21C153.654 1836.22 161.381 1843.72 172.036 1851.25C182.94 1858.97 196.527 1866.46 210.871 1873.29C239.398 1886.89 270.555 1897.72 288.732 1902.46C295.281 1902.77 303.155 1903.63 310.272 1906.11C317.523 1908.65 324.381 1913.02 327.968 1920.59L328.388 1921.48L328.254 1922.45C327.489 1927.98 323.465 1930.93 319.397 1932.38C315.395 1933.81 310.786 1934.04 307.309 1933.93H307.307C281.001 1933.11 255.157 1932.91 228.84 1933.36H228.838C190.101 1933.99 151.144 1934.74 112.309 1933.87C99.0688 1933.57 84.2655 1933.44 70.9829 1932.01L70.9819 1932.01C61.488 1930.99 52.3123 1928.05 46.1821 1918.94L45.7436 1918.28C36.7414 1904.25 41.1605 1888.87 46.7436 1875.11C49.7121 1867.8 52.8529 1861.29 55.3579 1854.56C57.8104 1847.97 59.2883 1842.04 58.9077 1836.72C58.3849 1829.41 55.6723 1819.68 52.4448 1809.57C49.2826 1799.67 45.6056 1789.36 43.4995 1781.5V1781.5C36.2785 1754.47 26.8696 1725.49 18.4985 1695.68C10.1901 1666.1 3.04789 1636.14 0.709439 1608.16C-2.26308 1572.47 4.23957 1516.12 17.6977 1482.47L17.6987 1482.47C20.7077 1474.96 24.9209 1466.29 28.809 1457.87C32.7447 1449.35 36.3642 1441.07 38.4038 1433.99V1433.99C40.6902 1426.07 41.816 1416.41 42.7368 1406.29C43.6457 1396.3 44.3567 1385.81 45.8667 1376.74C47.491 1366.9 49.6296 1356.78 51.5981 1346.82C53.5758 1336.82 55.3923 1326.94 56.4272 1317.4C59.1204 1292.63 57.2897 1265.81 55.8452 1240.3L55.563 1235.21C52.363 1176.32 45.9658 1125.46 55.8657 1066.4C43.8413 1051.09 35.0104 1039.47 25.6518 1022.18C15.488 1003.4 12.0454 974.771 13.7348 946.86C15.4256 918.926 22.3076 890.879 33.5464 873.21C43.6168 857.373 53.9128 846.425 62.9272 834.923C71.878 823.501 80.0208 811.027 86.6762 791.464C85.5708 783.62 83.5252 775.963 81.4829 767.995C79.3942 759.845 77.3239 751.408 76.5268 742.572V742.57C75.7893 734.345 76.2874 725.283 76.2944 716.948C76.3015 708.41 75.8128 700.377 73.3413 693.287L73.3403 693.286C69.8545 683.274 63.877 673.767 58.5444 663.869C50.9809 649.838 37.9974 627.875 26.811 605.931C21.1921 594.909 15.9554 583.762 11.9819 573.414C8.02635 563.113 5.23825 553.391 4.66745 545.279L4.59225 544.071C3.8695 530.893 4.84073 496.514 6.6694 462.829C7.61588 445.394 8.79699 428.059 10.1049 413.812C11.4005 399.701 12.8471 388.275 14.394 382.905C17.0269 373.777 22.1816 362.417 28.2778 350.218C34.3807 338.005 41.5796 324.657 48.3208 311.661C55.0947 298.602 61.4394 285.836 65.9819 274.542C70.5757 263.12 73.114 253.697 72.7319 247.151C71.5743 227.326 64.3386 212.608 56.2202 198.191C48.1557 183.87 38.9957 169.538 35.1059 151.228C31.9602 136.39 32.1766 118.499 35.226 101.25C38.2743 84.0075 44.2028 67.125 52.7124 54.3767C73.406 23.3558 105.44 7.83555 140.374 0.737048L140.547 0.701892L140.723 0.68529Z" fill="currentColor"/>
</svg>
