<svg width="407" height="600" viewBox="0 0 407 600" fill="none" xmlns="http://www.w3.org/2000/svg">
<path d="M164.839 3.71151L169.743 2.94392L168.271 5.67925C170.826 9.35772 176.381 15.4751 179.882 18.1793L176.523 18.4867C135.873 25.2247 102.808 36.6927 75.4709 68.8869L74.5763 69.9199C33.7538 123.16 31.1397 161.701 39.6761 226.645C44.4669 264.924 51.729 302.855 61.4188 340.197C66.7413 360.574 73.2516 377.654 79.1495 397.486C90.1203 434.38 90.4303 471.364 83.8889 509.09C79.9979 509.882 69.1555 513.216 67.042 512.624C74.8829 480.264 71.3396 443.057 66.6741 410.537L66.2792 409.669C63.6785 398.498 60.7913 386.632 56.8549 376.036C51.0788 360.489 48.3318 363.12 35.6548 357.843C20.1284 351.379 14.659 330.248 9.24577 315.233C7.91011 311.345 6.98187 307.858 5.92594 303.91C-0.580984 288.962 -2.34507 255.575 3.75948 239.954C6.62317 232.626 13.9407 229.841 20.6081 227.212C20.7635 214.315 19.994 200.502 19.8664 187.534C19.1977 119.905 45.532 54.2544 108.105 21.6554C126.023 12.3198 144.981 7.84098 164.839 3.71151Z" fill="currentColor"/>
<path d="M169.743 2.94392C274.338 -13.2716 368.43 37.8643 385.064 147.359C387.783 165.255 386.859 184.972 386.72 203.043C382.722 204.325 374.734 207.536 371.554 207.949C370.506 206.255 370.879 207.151 370.411 205.274C373.516 176.099 370.921 144.768 360.93 117.136L360.338 116.279C355.429 96.504 333.138 68.4653 317.599 55.2404C277.993 21.5312 229.824 14.4454 179.882 18.1793C176.381 15.4751 170.826 9.35772 168.271 5.67925L169.743 2.94392Z" fill="currentColor"/>
<path d="M379.078 251.511C380.326 244.783 379.809 242.461 386.518 240.288C388.834 244.291 389.572 246.405 391.15 250.646L392.174 256.115L392.851 262.199C399.654 260.907 401.334 259.28 406.302 254.814C406.75 261.757 407.681 271.872 406.178 278.45C405.187 303.684 394.369 335.308 375.82 353.702C369.802 359.67 358.4 361.514 355.995 364.845C343.404 382.28 336.163 427.982 334.62 448.159C334.524 452.244 334.536 455.487 333.916 459.554C334.198 499.118 338.22 527.664 364.333 559.13C369.128 563.951 372.952 567.656 378.093 572.078C385.343 577.67 401.911 585.051 402.651 593.812C399.623 604.454 389.813 599.007 383.834 594.884C340.97 564.818 326.549 543.534 320.356 492.467C312.562 428.202 329.501 396.757 346.223 337.901C353.413 313.065 359.175 287.838 363.483 262.344C366.938 263.973 371.449 267.92 376.395 270.486C376.624 267.304 377.55 262.216 378.042 258.913L379.078 251.511Z" fill="currentColor"/>
<path d="M49.472 551.594C51.5166 557.734 52.7195 562.282 56.6013 567.541C48.6168 576.045 24.6304 599.81 11.3922 599.334C8.84272 599.242 7.1744 596.775 5.89923 594.716C5.87991 592.056 6.59983 589.946 8.68144 588.093C22.9436 575.399 37.2713 566.696 49.472 551.594Z" fill="currentColor"/>
</svg>
