<svg width="446" height="600" viewBox="0 0 446 600" fill="none" xmlns="http://www.w3.org/2000/svg">
<path d="M324.813 40.1701L324.195 39.833C311.878 32.8743 303.554 25.9156 289.975 20.0726C237.067 -2.69762 174.509 -7.56952 120.123 13.1219C73.6265 30.4102 46.14 50.0583 21.0077 93.6002C-13.7823 153.885 -0.388595 216.978 25.266 277.142C31.3884 291.477 40.5639 305.595 45.9712 320.283L46.7024 321.431C51.1134 317.755 53.9577 314.319 57.9751 310.306L57.0189 308.308C41.6406 269.485 20.0596 234.7 15.3754 191.343C10.7635 151.597 22.5503 111.683 48.004 80.7905C78.6883 43.2361 125.932 20.6184 173.851 15.8749L186.368 15.7304C200.686 16.0113 214.956 15.8829 229.314 17.753C273.954 23.572 308.511 42.7625 339.886 74.5702C372.716 107.847 391.107 150.409 391.605 197.354C391.694 205.453 389.789 220.502 388.833 228.913L389.074 230.759C388.962 247.67 390.681 261.62 398.137 277.126C400.853 282.777 404.179 288.114 408.052 293.034C413.885 300.595 426.251 314.255 428.741 322.57C436.334 347.893 395.261 338.133 394.65 363.407C394.618 364.844 394.634 366.273 394.691 367.709C399.447 366.481 403.529 365.799 408.366 364.972C418.136 354.771 436.872 353.23 443.356 341.392C454.436 321.19 427.713 295.346 418.063 279.486C412.206 269.855 409.836 263.04 407.12 252.47L407.048 250.712C403.464 238.954 406.501 214.41 406.815 201.078C407.024 191.784 406.518 182.482 405.304 173.268C398.29 119.589 367.558 73.6872 325.231 41.093L324.813 40.1701Z" fill="currentColor"/>
<path d="M400.041 426.95C394.513 422.006 393.204 420.506 388.624 414.783C372.892 436.847 399.631 470.436 364.633 480.662C342.361 487.163 268.273 458.236 257.579 476.656C242.329 502.902 231.981 544.999 234.592 575.354C235.01 581.478 241.904 608.43 252.292 597.362C255.587 589.544 247.865 579.752 248.171 571.349C249.103 545.593 253.98 520.247 264.642 496.658C273.174 477.804 274.516 483.768 292.723 486.729C322.378 491.561 370.835 508.384 392.898 479.217C405.296 461.455 391.846 442.682 400.041 426.95Z" fill="currentColor"/>
<path d="M57.9751 310.306C53.9577 314.319 51.1134 317.755 46.7024 321.431C70.8063 394.308 53.0655 448.22 22.2366 516.45C19.7539 521.948 -0.0835746 551.099 1.6278 555.016C7.11546 567.577 19.8744 553.065 22.8472 546.404C56.1347 486.657 82.7615 417.391 69.7775 348.222L67.8894 342.09L67.6002 340.645L66.7726 335.452C64.0569 326.928 61.0282 318.71 57.9751 310.306Z" fill="currentColor"/>
</svg>
