<svg width="446" height="600" viewBox="0 0 446 600" fill="none" xmlns="http://www.w3.org/2000/svg">
<path d="M121.187 40.1701L121.805 39.833C134.122 32.8743 142.446 25.9156 156.025 20.0726C208.933 -2.69762 271.491 -7.56952 325.877 13.1219C372.373 30.4102 399.86 50.0583 424.992 93.6002C459.782 153.885 446.389 216.978 420.734 277.142C414.612 291.477 405.436 305.595 400.029 320.283L399.298 321.431C394.887 317.755 392.042 314.319 388.025 310.306L388.981 308.308C404.359 269.485 425.94 234.7 430.625 191.343C435.236 151.597 423.45 111.683 397.996 80.7905C367.312 43.2361 320.068 20.6184 272.149 15.8749L259.632 15.7304C245.314 16.0113 231.044 15.8829 216.686 17.753C172.046 23.572 137.489 42.7625 106.114 74.5702C73.2841 107.847 54.8929 150.409 54.3947 197.354C54.3063 205.453 56.2106 220.502 57.1667 228.913L56.9257 230.759C57.0381 247.67 55.3187 261.62 47.8626 277.126C45.1468 282.777 41.8205 288.114 37.9478 293.034C32.1147 300.595 19.7494 314.255 17.2587 322.57C9.66592 347.893 50.739 338.133 51.3497 363.407C51.3818 364.844 51.3657 366.273 51.3094 367.709C46.5529 366.481 42.4713 365.799 37.6345 364.972C27.8644 354.771 9.12765 353.23 2.64369 341.392C-8.43607 321.19 18.2871 295.346 27.9367 279.486C33.794 269.855 36.1642 263.04 38.8799 252.47L38.9522 250.712C42.5356 238.954 39.4986 214.41 39.1852 201.078C38.9763 191.784 39.4825 182.482 40.6957 173.268C47.71 119.589 78.4424 73.6872 120.769 41.093L121.187 40.1701Z" fill="currentColor"/>
<path d="M45.9587 426.95C51.4865 422.006 52.7963 420.506 57.376 414.783C73.1078 436.847 46.3685 470.436 81.3674 480.662C103.639 487.163 177.727 458.236 188.421 476.656C203.671 502.902 214.019 544.999 211.408 575.354C210.99 581.478 204.096 608.43 193.708 597.362C190.413 589.544 198.135 579.752 197.829 571.349C196.897 545.593 192.02 520.247 181.358 496.658C172.826 477.804 171.484 483.768 153.277 486.729C123.622 491.561 75.1646 508.384 53.1015 479.217C40.7041 461.455 54.154 442.682 45.9587 426.95Z" fill="currentColor"/>
<path d="M388.025 310.306C392.042 314.319 394.887 317.755 399.298 321.431C375.194 394.308 392.935 448.22 423.763 516.45C426.246 521.948 446.084 551.099 444.372 555.016C438.885 567.577 426.126 553.065 423.153 546.404C389.865 486.657 363.239 417.391 376.222 348.222L378.111 342.09L378.4 340.645L379.227 335.452C381.943 326.928 384.972 318.71 388.025 310.306Z" fill="currentColor"/>
</svg>
